PathFileType	4	(X/Y/Z)	D:\TRACE\v60_Jaco2_6-2-23\BothDRS_Motion3_3-v60.trc
DataRate	CameraRate	NumFrames	NumMarkers	Units	OrigDataRate	OrigDataStartFrame	OrigNumFrames
100.00	100.00	      28	9	mm	100.00	1751	      7000
Frame#	Time	front left toe			Front right toe			aft left toe			aft right toe			Arm			FL body			FR body			AL Body			AR Body			
		X1	Y1	Z1	X2	Y2	Z2	X3	Y3	Z3	X4	Y4	Z4	X5	Y5	Z5	X6	Y6	Z6	X7	Y7	Z7	X8	Y8	Z8	X9	Y9	Z9	

1751	17.500	-191.89320	10.18909	-215.71635	202.49571	142.06293	-237.74889	-144.66371	148.44382	397.37808	209.40941	18.32650	389.15533	8.61109	1130.49194	-604.41376	-78.40574	510.03799	-396.45175	79.97792	507.35837	-401.97388	-36.51377	571.75201	545.33508	115.46757	560.15143	539.44171	
1752	17.510	-191.84544	10.23479	-215.51109	203.66309	145.69476	-237.85121	-145.08682	151.18758	397.55762	209.35941	18.26055	389.05435	8.55260	1130.35559	-604.59229	-78.59612	510.27838	-396.21951	79.77602	507.81372	-401.96063	-35.72645	571.80499	545.57599	116.47086	560.58569	540.20770	
1753	17.520	-191.84232	10.51918	-215.67238	204.45389	145.50336	-237.89911	-145.60464	151.83315	397.96866	209.27283	18.24835	389.14706	8.23146	1130.12280	-604.78870	-78.70578	510.68018	-396.15378	79.49594	508.17517	-401.93842	-34.41322	571.81909	545.71991	117.42800	560.52124	540.19775	
1754	17.530	-191.96581	10.69379	-215.68376	203.33876	142.66786	-237.23502	-145.26208	150.02234	398.74756	209.47691	18.21640	389.04346	7.45341	1129.93811	-604.98157	-78.88894	511.03845	-395.77594	79.24274	508.40277	-401.85114	-33.86307	571.84766	545.77417	117.81429	560.51782	540.25275	
1755	17.540	-192.01329	10.68752	-215.54333	204.09180	138.26472	-237.01962	-145.11938	147.29652	399.71515	209.42940	18.19822	389.05359	6.13730	1129.87061	-605.09344	-78.88609	511.02600	-395.35889	78.96478	508.69083	-401.51859	-32.49494	571.88647	546.07709	118.91106	560.62061	540.30914	
1756	17.550	-192.03998	10.72141	-215.42703	201.95578	132.51852	-237.41066	-143.84395	143.53560	400.18045	209.45039	18.10889	389.08099	5.45224	1129.39221	-605.04724	-78.89495	511.16241	-395.07837	78.91975	508.81650	-401.54242	-31.68154	571.83606	546.25909	119.99695	560.65540	540.39160	
1757	17.560	-192.04039	10.70545	-215.21577	201.98433	127.12333	-237.32010	-143.63866	139.31673	400.59949	209.33960	17.95133	389.06931	4.73008	1128.85535	-605.08887	-78.85448	511.17761	-394.86816	78.85818	508.77863	-401.53619	-31.01212	571.85217	546.45874	120.79541	560.66309	540.35675	
1758	17.570	-192.04778	10.86097	-215.27237	202.28784	121.43966	-237.63560	-140.95203	132.65215	401.12610	209.29756	17.81374	389.10379	4.02206	1128.29602	-605.21710	-78.92095	511.14407	-394.62967	78.99191	508.54828	-401.76843	-29.60751	571.78033	546.50031	121.77275	560.62872	540.21375	
1759	17.580	-192.15700	10.91455	-215.16676	202.84334	114.89944	-238.28563	-140.70738	126.16312	401.72943	209.40851	17.65400	389.11392	3.80581	1127.59192	-605.42566	-79.08282	511.10605	-394.51581	78.77995	508.47147	-401.74738	-28.64450	571.69141	546.61041	122.78082	559.97864	539.32349	
1760	17.590	-192.25371	10.83638	-214.98880	202.94516	107.74863	-239.25632	-140.53302	118.93218	401.92108	209.58087	17.47342	389.15546	3.36472	1126.30005	-605.74963	-79.26399	510.76669	-394.35208	78.69157	508.35760	-401.70859	-27.30461	571.40845	546.72968	123.95970	559.61371	539.18555	
1761	17.600	-192.34897	10.83472	-214.84500	204.74875	100.69809	-239.35178	-138.99800	110.71611	402.54205	209.67564	17.18846	389.20822	3.75780	1125.02490	-605.99414	-79.24966	510.59348	-394.18222	78.64685	508.19037	-401.71652	-25.96502	571.19556	546.85150	125.05670	559.51575	539.14661	
1762	17.610	-192.40500	10.85929	-214.74113	204.05568	92.40271	-240.20360	-137.70065	102.45190	402.85791	209.66081	16.88866	389.13040	3.44384	1124.01514	-606.23730	-79.24239	510.52719	-394.10254	78.66408	508.03146	-401.80658	-25.04825	570.93292	546.72388	125.96024	559.41046	539.11627	
1763	17.620	-192.44009	10.90135	-214.65231	204.84875	83.65897	-240.62611	-135.66220	93.74212	403.07883	209.59698	16.62474	389.11313	3.30210	1122.96960	-606.52600	-79.18220	510.52505	-394.10037	78.79675	507.87814	-401.99469	-23.91936	570.88013	546.90479	127.24123	559.24579	538.85999	
1764	17.630	-192.45427	10.96226	-214.61365	204.47652	75.05006	-241.39243	-134.08350	85.54724	403.05911	209.69699	16.48997	389.11719	3.53330	1122.24475	-606.63245	-79.10355	510.47098	-394.12646	78.96780	507.72073	-402.21637	-22.80959	570.77710	546.71649	128.38429	559.09869	538.71234	
1765	17.640	-192.50438	11.03544	-214.53856	204.59541	66.06705	-241.57800	-132.92731	77.49579	402.86133	209.77431	16.48147	389.10135	3.02945	1121.68542	-607.09674	-78.97456	510.32043	-394.11948	79.07406	507.50085	-402.43744	-21.53306	570.68262	546.53748	129.68916	558.94977	538.39911	
1766	17.650	-192.53464	11.11803	-214.45804	204.09338	57.45249	-242.20970	-132.19753	69.32517	402.12161	209.97711	16.44279	389.13623	2.80828	1121.11487	-607.46619	-78.80257	510.17755	-394.17758	79.24422	507.34564	-402.67648	-20.26573	570.65338	546.44775	130.70773	558.79407	537.96332	
1767	17.660	-192.51025	11.11049	-214.39912	205.10643	49.71493	-242.13287	-131.61351	61.50480	401.94687	210.05539	16.33654	389.05447	2.88728	1120.64966	-608.03925	-78.61259	510.10861	-394.30173	79.37125	507.34491	-402.58627	-18.76416	570.67957	546.32648	131.88664	558.65479	537.59387	
1768	17.670	-192.54716	11.19684	-214.34322	206.85950	42.48823	-241.85191	-130.57991	53.81616	401.75055	210.17375	16.24890	389.03564	3.12637	1120.25061	-608.41528	-78.42735	510.11566	-394.47021	79.59206	507.30600	-403.33939	-17.44000	570.55798	546.19983	133.33020	558.56238	537.19086	
1769	17.680	-192.56001	11.28928	-214.32022	207.84357	35.35417	-242.57632	-130.16635	46.64824	402.07095	210.22009	16.16170	388.99716	3.32556	1120.07397	-608.78064	-78.17872	510.09872	-394.73163	79.79094	507.20770	-403.75510	-16.37596	570.51038	545.80066	134.59909	558.43561	536.75781	
1770	17.690	-192.55110	11.36771	-214.24562	208.12096	28.80102	-243.24155	-128.78299	40.08715	401.51846	210.27341	16.14087	389.03119	3.51082	1120.09253	-609.15295	-77.82654	510.12988	-395.03113	79.92427	507.09668	-404.37320	-14.68396	570.55890	545.39325	135.95923	558.43945	536.06757	
1771	17.700	-192.60199	11.51351	-214.15881	208.84102	22.59767	-243.88870	-129.67282	34.36598	400.84003	210.24323	16.03584	388.98026	4.10219	1120.14172	-609.64948	-77.54893	510.12622	-395.36404	80.31680	506.79578	-404.38525	-13.44813	570.47314	544.98993	137.31618	558.44647	535.56067	
1772	17.710	-192.56802	11.57231	-214.05949	209.79872	16.36295	-244.65317	-128.92363	27.75291	400.20850	210.22353	15.82771	388.89325	4.68572	1120.19629	-609.98651	-77.27933	510.10007	-395.91522	81.27871	506.60873	-405.57849	-12.18999	570.41992	544.30774	138.77557	558.25793	534.89349	
1773	17.720	-192.57248	11.68702	-213.92744	209.66122	15.41921	-246.77121	-128.82275	21.88983	399.03964	210.22456	15.52615	388.83493	5.38066	1120.33594	-610.44208	-76.90954	510.08844	-396.36670	81.58480	506.71780	-406.26486	-10.73744	570.45911	544.11298	140.29230	557.98956	534.32159	
1774	17.730	-192.44249	11.75482	-213.96387	210.66696	14.08207	-246.66382	-128.97578	20.28651	398.98895	210.25812	15.27065	388.86295	5.70542	1120.65723	-611.05035	-76.59798	510.64014	-396.83102	81.05382	507.54617	-406.36621	-9.16332	570.47357	543.35718	141.55661	558.15491	533.68524	
1775	17.740	-192.30681	12.08429	-214.12663	209.83365	13.78117	-246.83469	-128.81889	20.57434	397.97128	210.11299	15.58452	388.51544	6.59227	1120.89856	-611.56378	-76.39971	511.07553	-397.16251	81.77451	507.64148	-407.00171	-7.66261	571.82007	542.92810	143.32544	559.27936	532.88928	
1776	17.750	-191.89095	12.55330	-214.26025	209.35838	13.51675	-246.77478	-128.48698	20.63443	398.32114	210.12843	15.91423	388.32425	6.59535	1121.86304	-612.24072	-76.00723	511.37979	-397.16284	81.90342	507.83987	-407.55374	-5.83400	573.89996	542.60382	144.90080	561.04523	532.42517	
1777	17.760	-190.64392	15.69996	-213.33144	210.32495	12.84243	-246.32393	-126.93331	19.35885	398.64996	208.63797	18.01731	389.72165	7.35352	1122.20020	-613.38477	-75.88811	511.74512	-397.28302	81.91561	508.17087	-407.96426	-4.41299	575.34088	542.48627	146.10686	562.23438	531.96777	
1778	17.770	-187.09648	18.98092	-210.28351	210.54590	13.01409	-246.62781	-126.74731	19.47554	398.69061	207.14343	21.19429	393.86792	7.19721	1122.46570	-615.06787	-75.65477	512.65680	-397.51721	82.04689	508.73294	-407.92200	-2.84920	576.30774	542.09198	147.60318	563.13104	531.44147	
